<?xml version="1.0" encoding="UTF-8" standalone="no"?>
<svg width="42px" height="42px" viewBox="0 0 42 42" version="1.1" xmlns="http://www.w3.org/2000/svg" xmlns:xlink="http://www.w3.org/1999/xlink">
    <!-- Generator: sketchtool 3.7 (28169) - http://www.bohemiancoding.com/sketch -->
    <title>76531DFC-7CAB-4D61-8AE2-6B398488DA95</title>
    <desc>Created with sketchtool.</desc>
    <defs></defs>
    <g id="Page-1" stroke="none" stroke-width="1" fill="none" fill-rule="evenodd">
        <g id="lifeslicewebbie" transform="translate(-579.000000, -569.000000)">
            <g id="btn-play" transform="translate(575.000000, 565.000000)">
                <g id="Group">
                    <g id="Frame_-_24px">
                        <rect id="Rectangle-path" x="0" y="0" width="50" height="50"></rect>
                    </g>
                    <g id="Line_Icons" transform="translate(4.166667, 4.166667)" fill="#FFFFFF">
                        <g id="Group">
                            <path d="M20.8333333,0 C9.34583333,0 0,9.34583333 0,20.8333333 C0,32.3229167 9.34583333,41.6666667 20.8333333,41.6666667 C32.3208333,41.6666667 41.6666667,32.3229167 41.6666667,20.8333333 C41.6666667,9.34583333 32.3208333,0 20.8333333,0 L20.8333333,0 Z M20.8333333,37.5 C11.64375,37.5 4.16666667,30.0229167 4.16666667,20.8333333 C4.16666667,11.64375 11.64375,4.16666667 20.8333333,4.16666667 C30.0229167,4.16666667 37.5,11.64375 37.5,20.8333333 C37.5,30.0229167 30.0229167,37.5 20.8333333,37.5 L20.8333333,37.5 Z" id="Shape"></path>
                            <polygon id="Shape" points="16.6666667 29.1666667 29.1666667 20.8333333 16.6666667 12.5"></polygon>
                        </g>
                    </g>
                </g>
            </g>
        </g>
    </g>
</svg>