<?xml version="1.0" encoding="UTF-8" standalone="no"?>
<svg width="28px" height="28px" viewBox="0 0 28 28" version="1.1" xmlns="http://www.w3.org/2000/svg" xmlns:xlink="http://www.w3.org/1999/xlink">
    <!-- Generator: sketchtool 3.7 (28169) - http://www.bohemiancoding.com/sketch -->
    <title>DCCB070D-0BCE-4AF3-AA04-125F52895C62</title>
    <desc>Created with sketchtool.</desc>
    <defs></defs>
    <g id="Page-1" stroke="none" stroke-width="1" fill="none" fill-rule="evenodd">
        <g id="lifeslicewebbie" transform="translate(-926.000000, -952.000000)">
            <g id="icon-share" transform="translate(924.000000, 950.000000)">
                <g id="Group">
                    <g id="Frame_-_24px">
                        <rect id="Rectangle-path" x="0" y="0" width="32" height="32"></rect>
                    </g>
                    <g id="Line_Icons" transform="translate(2.666667, 2.666667)" fill="#87C0DF">
                        <path d="M21.3333333,16 C19.7333333,16 18.312,16.7213333 17.3333333,17.8413333 L10.544,14.448 C10.6226667,14.0893333 10.6666667,13.7173333 10.6666667,13.3333333 C10.6666667,12.9493333 10.6226667,12.5786667 10.544,12.2173333 L17.3333333,8.824 C18.312,9.944 19.7333333,10.6666667 21.3333333,10.6666667 C24.2733333,10.6666667 26.6666667,8.27333333 26.6666667,5.33333333 C26.6666667,2.392 24.2733333,0 21.3333333,0 C18.3933333,0 16,2.392 16,5.33333333 C16,5.716 16.044,6.088 16.1226667,6.448 L9.33333333,9.84133333 C8.35466667,8.72266667 6.93333333,8 5.33333333,8 C2.39333333,8 0,10.392 0,13.3333333 C0,16.2733333 2.39333333,18.6666667 5.33333333,18.6666667 C6.93333333,18.6666667 8.35466667,17.9426667 9.33333333,16.8226667 L16.1226667,20.2173333 C16.044,20.5786667 16,20.9506667 16,21.3333333 C16,24.2733333 18.3933333,26.6666667 21.3333333,26.6666667 C24.2733333,26.6666667 26.6666667,24.2733333 26.6666667,21.3333333 C26.6666667,18.392 24.2733333,16 21.3333333,16 L21.3333333,16 Z M21.3333333,2.66666667 C22.8053333,2.66666667 24,3.86 24,5.33333333 C24,6.80533333 22.8053333,8 21.3333333,8 C19.8613333,8 18.6666667,6.80533333 18.6666667,5.33333333 C18.6666667,3.86 19.8613333,2.66666667 21.3333333,2.66666667 L21.3333333,2.66666667 Z M5.33333333,16 C3.86133333,16 2.66666667,14.8053333 2.66666667,13.3333333 C2.66666667,11.86 3.86133333,10.6666667 5.33333333,10.6666667 C6.80533333,10.6666667 8,11.86 8,13.3333333 C8,14.8053333 6.80533333,16 5.33333333,16 L5.33333333,16 Z M21.3333333,24 C19.8613333,24 18.6666667,22.8053333 18.6666667,21.3333333 C18.6666667,19.86 19.8613333,18.6666667 21.3333333,18.6666667 C22.8053333,18.6666667 24,19.86 24,21.3333333 C24,22.8053333 22.8053333,24 21.3333333,24 L21.3333333,24 Z" id="Shape"></path>
                    </g>
                </g>
            </g>
        </g>
    </g>
</svg>