<?xml version="1.0" encoding="UTF-8" standalone="no"?>
<svg width="27px" height="27px" viewBox="0 0 27 27" version="1.1" xmlns="http://www.w3.org/2000/svg" xmlns:xlink="http://www.w3.org/1999/xlink">
    <!-- Generator: sketchtool 3.7 (28169) - http://www.bohemiancoding.com/sketch -->
    <title>D6E2E3C7-CB77-450D-8999-12180F2BE990</title>
    <desc>Created with sketchtool.</desc>
    <defs></defs>
    <g id="Page-1" stroke="none" stroke-width="1" fill="none" fill-rule="evenodd">
        <g id="lifeslicewebbie" transform="translate(-586.000000, -952.000000)">
            <g id="icon-discover" transform="translate(584.000000, 950.000000)">
                <g id="Group">
                    <g id="Frame_-_24px">
                        <rect id="Rectangle-path" x="0.00128" y="0.00128" width="30.72" height="30.72128"></rect>
                    </g>
                    <g id="Line_Icons" transform="translate(2.560000, 2.560000)" fill="#87C0DF">
                        <path d="M12.8,0 C5.728,0 -0.00128,5.72544 1.43245416e-13,12.8 C1.43245416e-13,19.87328 5.72416,25.6 12.8,25.6 C19.872,25.6 25.6,19.87584 25.6,12.8 C25.60128,5.728 19.87584,0 12.8,0 L12.8,0 Z M2.56,12.8 C2.56,10.06464 3.62496,7.49312 5.55904,5.55904 C7.49312,3.62496 10.06464,2.56 12.8,2.56 C15.48416,2.56 18.00576,3.5904 19.92576,5.45536 L9.07264,9.07264 L5.45536,19.92704 C3.5904,18.00576 2.56,15.48288 2.56,12.8 L2.56,12.8 Z M11.09632,11.09632 L14.5024,14.50496 L14.5024,14.50496 L9.39264,16.20864 L11.09632,11.09632 L11.09632,11.09632 Z M12.8,23.04 C10.11712,23.04 7.59552,22.0096 5.67552,20.14592 L16.52736,16.52736 L20.14464,5.67296 C22.0096,7.59424 23.04,10.11712 23.04,12.8 C23.04,18.46016 18.46016,23.04 12.8,23.04 L12.8,23.04 Z" id="Shape"></path>
                    </g>
                </g>
            </g>
        </g>
    </g>
</svg>