<?xml version="1.0" encoding="UTF-8" standalone="no"?>
<svg width="279px" height="322px" viewBox="0 0 279 322" version="1.1" xmlns="http://www.w3.org/2000/svg" xmlns:xlink="http://www.w3.org/1999/xlink">
    <!-- Generator: sketchtool 3.7 (28169) - http://www.bohemiancoding.com/sketch -->
    <title>58676F27-66C0-4607-A3DF-215A3F68D3E6</title>
    <desc>Created with sketchtool.</desc>
    <defs>
        <polyline id="path-1" points="0 0.515 279 0.515 279 322 0 322"></polyline>
        <polyline id="path-3" points="0.538 25.015 19.461 25.015 19.461 0.015 0.538 0.015"></polyline>
    </defs>
    <g id="Page-1" stroke="none" stroke-width="1" fill="none" fill-rule="evenodd">
        <g id="lifeslicewebbie" transform="translate(-277.000000, -1972.000000)">
            <g id="icons-socialicons" transform="translate(277.000000, 1972.000000)">
                <g id="Group-22">
                    <path d="M144,131.5148 C144,117.7078 132.807,106.5148 119,106.5148 C105.193,106.5148 94,117.7078 94,131.5148 C94,145.3218 105.193,156.5148 119,156.5148 C132.807,156.5148 144,145.3218 144,131.5148" id="Fill-1" fill="#0882F6"></path>
                    <path d="M119.0006,120.4037 C112.9156,120.4037 107.9656,125.0817 107.9656,130.8317 C107.9656,133.9287 109.4076,136.8447 111.9226,138.8327 C112.2456,139.0887 112.7156,139.0337 112.9716,138.7107 C113.2276,138.3857 113.1726,137.9167 112.8486,137.6607 C110.6956,135.9577 109.4606,133.4687 109.4606,130.8317 C109.4606,125.9057 113.7406,121.8977 119.0006,121.8977 C124.2606,121.8977 128.5396,125.9057 128.5396,130.8317 C128.5396,135.7587 124.2606,139.7667 119.0006,139.7667 C118.0826,139.7667 117.1756,139.6447 116.3026,139.4047 C116.1116,139.3527 115.9076,139.3777 115.7366,139.4747 L112.6416,141.2287 C112.2826,141.4317 112.1556,141.8877 112.3586,142.2467 C112.4966,142.4897 112.7496,142.6257 113.0096,142.6257 C113.1346,142.6257 113.2616,142.5947 113.3776,142.5287 L116.2096,140.9247 C117.1166,141.1487 118.0546,141.2617 119.0006,141.2617 C125.0846,141.2617 130.0336,136.5827 130.0336,130.8317 C130.0336,125.0817 125.0846,120.4037 119.0006,120.4037" id="Fill-3" fill="#FFFFFF"></path>
                    <path d="M119.3138,127.5624 C119.0498,127.4394 118.7388,127.4824 118.5168,127.6704 L112.7488,132.5574 C112.4338,132.8244 112.3948,133.2964 112.6618,133.6104 C112.9288,133.9254 113.3998,133.9644 113.7148,133.6974 L118.2528,129.8524 L118.2528,133.4254 C118.2528,133.7164 118.4208,133.9804 118.6848,134.1034 C118.7858,134.1494 118.8928,134.1724 118.9998,134.1724 C119.1728,134.1724 119.3448,134.1124 119.4828,133.9954 L125.2508,129.1074 C125.5658,128.8404 125.6048,128.3694 125.3378,128.0544 C125.0708,127.7394 124.5998,127.7004 124.2848,127.9674 L119.7468,131.8124 L119.7468,128.2404 C119.7468,127.9494 119.5778,127.6844 119.3138,127.5624" id="Fill-5" fill="#FFFFFF"></path>
                    <path d="M279,215.5148 C279,193.4238 261.091,175.5148 239,175.5148 C216.909,175.5148 199,193.4238 199,215.5148 C199,237.6058 216.909,255.5148 239,255.5148 C261.091,255.5148 279,237.6058 279,215.5148" id="Fill-7" fill="#3B5998"></path>
                    <path d="M236.629,233.2926 L236.629,216.6956 L229.516,216.6946 L229.516,211.9526 L236.629,211.9526 L236.629,204.8396 C236.629,199.2956 239.432,197.7366 244.285,197.7366 C246.609,197.7366 247.833,197.9916 248.415,198.0706 L248.415,203.6816 L244.299,203.6816 C241.66,203.6816 241.371,207.7076 241.371,209.5816 L241.371,211.9526 L248.484,211.9526 L247.299,216.6946 L241.371,216.6946 L241.371,233.2916 L236.629,233.2926 Z" id="Fill-9" fill="#FFFFFF"></path>
                    <g id="Group-13">
                        <mask id="mask-2" fill="white">
                            <use xlink:href="#path-1"></use>
                        </mask>
                        <g id="Clip-12"></g>
                        <path d="M99,40.5148 C99,18.4238 81.091,0.5148 59,0.5148 C36.909,0.5148 19,18.4238 19,40.5148 C19,62.6058 36.909,80.5148 59,80.5148 C81.091,80.5148 99,62.6058 99,40.5148" id="Fill-11" fill="#00ACED" mask="url(#mask-2)"></path>
                    </g>
                    <path d="M76.7778,29.4004 L73.4448,32.7264 L73.4448,33.2804 C73.4448,33.8874 73.3458,34.4674 73.2048,35.0324 C73.1268,39.6074 71.6658,45.6724 65.6668,50.4614 C53.8658,59.8784 41.2218,51.5694 41.2218,51.5694 C51.2218,51.5694 51.2218,48.2434 51.2218,48.2434 C49.0008,48.2434 44.5558,43.8104 44.5558,43.8104 C45.6668,44.9184 47.8888,43.8104 47.8888,43.8104 C42.3338,40.4854 42.3338,37.1594 42.3338,37.1594 C43.4448,38.2674 45.6668,37.1594 45.6668,37.1594 C40.1108,32.7264 43.4448,27.1844 43.4448,27.1844 C44.5558,32.7264 58.9998,34.9434 58.9998,34.9434 L59.1838,34.8514 C59.0708,34.3434 58.9998,33.2674 58.9998,32.7264 C58.9998,28.7464 62.2338,26.0754 66.2218,26.0754 C68.4178,26.0754 70.3608,27.0734 71.6848,28.6164 L72.3338,28.2924 L75.6668,26.0754 L73.4448,30.5084 L76.7778,29.4004 Z" id="Fill-14" fill="#FFFFFF"></path>
                    <path d="M67,136.5148 C67,119.9458 53.569,106.5148 37,106.5148 C20.431,106.5148 7,119.9458 7,136.5148 C7,153.0838 20.431,166.5148 37,166.5148 C53.569,166.5148 67,153.0838 67,136.5148" id="Fill-16" fill="#43D854"></path>
                    <path d="M44.71,139.4948 C44.619,139.3448 44.378,139.2558 44.018,139.0768 C43.657,138.8978 41.881,138.0298 41.551,137.9118 C41.22,137.7918 40.978,137.7318 40.739,138.0898 C40.498,138.4488 39.806,139.2558 39.595,139.4948 C39.385,139.7348 39.175,139.7638 38.813,139.5848 C38.452,139.4058 37.288,139.0258 35.91,137.8068 C34.837,136.8568 34.113,135.6848 33.901,135.3268 C33.691,134.9688 33.88,134.7748 34.059,134.5958 C34.222,134.4348 34.42,134.1778 34.601,133.9698 C34.782,133.7598 34.842,133.6098 34.962,133.3698 C35.083,133.1308 35.023,132.9228 34.931,132.7438 C34.842,132.5648 34.119,130.8018 33.818,130.0838 C33.519,129.3678 33.218,129.4868 33.006,129.4868 C32.796,129.4868 32.555,129.4568 32.314,129.4568 C32.073,129.4568 31.683,129.5468 31.352,129.9048 C31.022,130.2628 30.089,131.1308 30.089,132.8918 C30.089,134.6548 31.382,136.3588 31.562,136.5958 C31.743,136.8358 34.059,140.5708 37.729,142.0048 C41.4,143.4388 41.4,142.9598 42.062,142.8998 C42.722,142.8418 44.197,142.0338 44.498,141.1968 C44.8,140.3608 44.8,139.6428 44.71,139.4948 M37.273,123.8428 C30.444,123.8428 24.891,129.3528 24.891,136.1288 C24.891,138.8158 25.766,141.3068 27.249,143.3328 L25.703,147.8948 L30.46,146.3828 C32.415,147.6658 34.757,148.4148 37.273,148.4148 C44.1,148.4148 49.655,142.9028 49.655,136.1288 C49.655,129.3528 44.1,123.8428 37.273,123.8428 M52,136.1288 C52,144.1988 45.407,150.7418 37.273,150.7418 C34.69,150.7418 32.264,150.0818 30.154,148.9238 L22,151.5148 L24.658,143.6748 C23.317,141.4718 22.545,138.8898 22.545,136.1288 C22.545,128.0578 29.139,121.5148 37.273,121.5148 C45.407,121.5148 52,128.0578 52,136.1288" id="Fill-18" fill="#FFFFFF"></path>
                    <path d="M179,193.5148 C179,179.7078 167.807,168.5148 154,168.5148 C140.193,168.5148 129,179.7078 129,193.5148 C129,207.3218 140.193,218.5148 154,218.5148 C167.807,218.5148 179,207.3218 179,193.5148" id="Fill-20" fill="#CB1F27"></path>
                </g>
                <g id="Group-25" transform="translate(144.000000, 181.000000)">
                    <mask id="mask-4" fill="white">
                        <use xlink:href="#path-3"></use>
                    </mask>
                    <g id="Clip-24"></g>
                    <path d="M19.5731,6.8591 C18.9061,1.9971 14.0521,-0.4809 8.8841,0.0971 C4.7901,0.5551 0.7191,3.8611 0.5461,8.5941 C0.4401,11.4781 1.2591,13.6421 4.0091,14.2491 C5.1961,12.1471 3.6251,11.6881 3.3791,10.1631 C2.3711,3.9281 10.5671,-0.3239 14.8561,4.0261 C17.8311,7.0461 15.8711,16.3171 11.0841,15.3471 C6.4961,14.4301 13.3311,7.0531 9.6731,5.6031 C6.6981,4.4241 5.1131,9.2011 6.5251,11.5761 C5.7001,15.6631 3.9191,19.5091 4.6401,24.6321 C6.9771,22.9341 7.7651,19.6821 8.4111,16.2941 C9.5901,17.0071 10.2211,17.7511 11.7151,17.8711 C17.2461,18.2921 20.3331,12.3491 19.5731,6.8591" id="Fill-23" fill="#FFFFFF" mask="url(#mask-4)"></path>
                </g>
                <g id="Group-42" transform="translate(0.000000, 71.000000)">
                    <path d="M155,206.5 C155,195.454 146.046,186.5 135,186.5 C123.954,186.5 115,195.454 115,206.5 C115,217.546 123.954,226.5 135,226.5 C146.046,226.5 155,217.546 155,206.5" id="Fill-26" fill="#6CB2D8"></path>
                    <path d="M135,198.7223 C130.705,198.7223 127.223,201.7073 127.223,205.3893 C127.223,207.6473 128.549,209.6203 130.556,210.8233 L130.556,210.9443 L130.556,213.7213 L133.889,212.0563 C133.889,212.0563 133.725,212.0553 135,212.0553 C139.295,212.0553 142.777,209.0703 142.777,205.3893 C142.777,201.7073 139.295,198.7223 135,198.7223 M135,213.1663 C134.66,213.1663 134.326,213.1463 133.996,213.1133 L129.445,215.3893 L129.445,211.4543 C127.414,210.0293 126.112,207.8443 126.112,205.3893 C126.112,201.0933 130.091,197.6113 135,197.6113 C139.909,197.6113 143.888,201.0933 143.888,205.3893 C143.888,209.6843 139.909,213.1663 135,213.1663" id="Fill-28" fill="#FFFFFF"></path>
                    <path d="M40,231 C40,219.954 31.046,211 20,211 C8.954,211 0,219.954 0,231 C0,242.046 8.954,251 20,251 C31.046,251 40,242.046 40,231" id="Fill-30" fill="#6CB2D8"></path>
                    <path d="M20.0002,230.3699 L26.0722,225.4999 L13.9282,225.4999 L20.0002,230.3699 Z M13.0132,235.9999 C13.0132,236.2759 13.2372,236.4999 13.5132,236.4999 L26.4872,236.4999 C26.7632,236.4999 26.9862,236.2759 26.9862,235.9999 L26.9862,226.0179 L20.3682,231.3259 C20.3622,231.3339 20.3652,231.3449 20.3572,231.3519 C20.2592,231.4509 20.1292,231.4949 20.0002,231.4919 C19.8702,231.4949 19.7412,231.4509 19.6422,231.3519 C19.6352,231.3449 19.6382,231.3339 19.6312,231.3259 L13.0132,226.0179 L13.0132,235.9999 Z M27.9842,236.9999 C27.9842,237.2759 27.7612,237.4999 27.4852,237.4999 L12.5152,237.4999 C12.2392,237.4999 12.0152,237.2759 12.0152,236.9999 L12.0152,224.9999 L12.0172,224.9899 C12.0172,224.9829 12.0212,224.9789 12.0212,224.9719 C12.0282,224.8559 12.0732,224.7509 12.1462,224.6699 C12.1542,224.6609 12.1502,224.6469 12.1592,224.6379 C12.1702,224.6269 12.1882,224.6309 12.1992,224.6209 C12.2742,224.5589 12.3662,224.5199 12.4682,224.5099 C12.4872,224.5079 12.5022,224.4989 12.5212,224.4999 L27.4782,224.4999 C27.4982,224.4989 27.5122,224.5079 27.5322,224.5099 C27.6342,224.5199 27.7262,224.5589 27.8012,224.6209 C27.8122,224.6309 27.8302,224.6269 27.8412,224.6379 C27.8492,224.6469 27.8462,224.6609 27.8542,224.6699 C27.9262,224.7519 27.9722,224.8559 27.9792,224.9719 C27.9792,224.9789 27.9822,224.9829 27.9822,224.9899 L27.9842,224.9999 L27.9842,236.9999 Z" id="Fill-32" fill="#FFFFFF"></path>
                    <path d="M234,30.5148 C234,13.9458 220.569,0.5148 204,0.5148 C187.431,0.5148 174,13.9458 174,30.5148 C174,47.0838 187.431,60.5148 204,60.5148 C220.569,60.5148 234,47.0838 234,30.5148" id="Fill-34" fill="#BB0000"></path>
                    <path d="M197.5612,27.2598 L199.3892,27.2598 L199.3912,20.9398 L201.5502,15.5258 L199.5512,15.5258 L198.4022,19.5468 L197.2392,15.5148 L195.2592,15.5148 L197.5582,20.9428 L197.5612,27.2598 Z M202.9222,25.0448 C202.9222,25.5118 203.2712,25.8928 203.6942,25.8928 C204.1172,25.8928 204.4622,25.5118 204.4622,25.0448 L204.4622,20.6578 C204.4622,20.1928 204.1172,19.8118 203.6942,19.8118 C203.2712,19.8118 202.9222,20.1928 202.9222,20.6578 L202.9222,25.0448 Z M201.4052,21.7718 C201.4052,20.9798 201.4722,20.3638 201.6022,19.9178 C201.7342,19.4728 201.9722,19.1168 202.3152,18.8478 C202.6572,18.5778 203.0952,18.4428 203.6282,18.4428 C204.0762,18.4428 204.4602,18.5308 204.7812,18.7028 C205.1052,18.8758 205.3522,19.0998 205.5252,19.3788 C205.7012,19.6568 205.8192,19.9438 205.8842,20.2368 C205.9482,20.5348 205.9812,20.9818 205.9812,21.5858 L205.9812,23.6708 C205.9812,24.4338 205.9502,24.9978 205.8912,25.3538 C205.8322,25.7118 205.7062,26.0438 205.5092,26.3548 C205.3152,26.6638 205.0662,26.8938 204.7632,27.0398 C204.4572,27.1898 204.1072,27.2608 203.7122,27.2608 C203.2712,27.2608 202.8982,27.2008 202.5922,27.0728 C202.2842,26.9478 202.0462,26.7548 201.8772,26.5008 C201.7062,26.2478 201.5862,25.9378 201.5132,25.5778 C201.4392,25.2168 201.4052,24.6748 201.4052,23.9538 L201.4052,21.7718 Z M207.2782,26.4268 C207.3672,26.6428 207.5062,26.8198 207.6962,26.9538 C207.8812,27.0858 208.1212,27.1508 208.4072,27.1508 C208.6582,27.1508 208.8792,27.0838 209.0732,26.9438 C209.2652,26.8038 209.4282,26.5968 209.5602,26.3208 L209.5272,27.0028 L211.4662,27.0028 L211.4662,18.7618 L209.9412,18.7618 L209.9412,25.1748 C209.9412,25.5228 209.6542,25.8058 209.3042,25.8058 C208.9562,25.8058 208.6692,25.5228 208.6692,25.1748 L208.6692,18.7618 L207.0782,18.7618 L207.0782,24.3198 C207.0782,25.0278 207.0912,25.4998 207.1122,25.7398 C207.1332,25.9768 207.1882,26.2048 207.2782,26.4268 L207.2782,26.4268 Z M213.9642,39.8348 L212.6602,39.8428 C212.6592,39.8928 212.6572,39.9528 212.6572,40.0188 L212.6572,40.7458 C212.6572,41.1348 212.3352,41.4508 211.9442,41.4508 L211.6882,41.4508 C211.2982,41.4508 210.9762,41.1348 210.9762,40.7458 L210.9762,38.8318 L213.9612,38.8318 L213.9612,37.7088 C213.9612,36.8888 213.9392,36.0678 213.8732,35.5978 C213.6582,34.1138 211.5752,33.8768 210.5212,34.6378 C210.1912,34.8748 209.9392,35.1928 209.7922,35.6208 C209.6442,36.0468 209.5712,36.6298 209.5712,37.3718 L209.5712,39.8408 C209.5712,43.9468 214.5582,43.3668 213.9642,39.8348 L213.9642,39.8348 Z M208.5232,40.3848 L208.5202,36.2408 C208.5182,34.6638 207.3362,33.7178 205.7332,34.9938 L205.7412,31.9148 L204.0052,31.9178 L203.9962,42.5478 L205.4242,42.5268 L205.5542,41.8638 C207.3782,43.5388 208.5262,42.3918 208.5232,40.3848 L208.5232,40.3848 Z M202.9612,34.6848 L201.2232,34.6848 L201.2232,39.6618 C201.2232,40.3818 201.2672,40.7408 201.2212,40.8678 C201.0802,41.2538 200.4452,41.6638 200.1962,40.9098 C200.1552,40.7788 200.1912,40.3798 200.1912,39.6958 L200.1852,34.6848 L198.4562,34.6848 L198.4612,39.6168 C198.4632,40.3728 198.4432,40.9368 198.4682,41.1938 C198.5102,41.6458 198.4942,42.1728 198.9132,42.4748 C199.6962,43.0378 201.1962,42.3898 201.5702,41.5838 L201.5662,42.6128 L202.9632,42.6148 L202.9632,34.6848 L202.9612,34.6848 Z M196.7112,42.6158 L196.7112,33.2968 L198.7962,33.2968 L198.7962,31.9158 L193.2382,31.9078 L193.2382,33.2658 L194.9732,33.2698 L194.9732,42.6158 L196.7112,42.6158 Z M216.5002,32.8078 L216.5002,41.6558 C216.5002,43.7778 214.6592,45.5148 212.4102,45.5148 L195.5902,45.5148 C193.3392,45.5148 191.5002,43.7778 191.5002,41.6558 L191.5002,32.8078 C191.5002,30.6858 193.3392,28.9488 195.5902,28.9488 L212.4102,28.9488 C214.6592,28.9488 216.5002,30.6858 216.5002,32.8078 L216.5002,32.8078 Z M206.4712,35.4088 C206.0542,35.4088 205.7122,35.6908 205.7122,36.0338 L205.7122,40.6838 C205.7122,41.0278 206.0542,41.3078 206.4712,41.3078 C206.8912,41.3078 207.2322,41.0278 207.2322,40.6838 L207.2322,36.0338 C207.2322,35.6908 206.8912,35.4088 206.4712,35.4088 L206.4712,35.4088 Z M212.6472,37.4578 L211.0002,37.4578 L211.0082,36.5028 C211.0082,36.0778 211.3562,35.7298 211.7832,35.7298 L211.8892,35.7298 C212.3152,35.7298 212.6652,36.0778 212.6652,36.5028 L212.6472,37.4578 Z" id="Fill-36" fill="#FFFFFF"></path>
                    <path d="M76,151.0148 C76,137.2078 64.807,126.0148 51,126.0148 C37.193,126.0148 26,137.2078 26,151.0148 C26,164.8218 37.193,176.0148 51,176.0148 C64.807,176.0148 76,164.8218 76,151.0148" id="Fill-38" fill="#45BBFF"></path>
                    <path d="M59.2423,141.6398 C61.4913,141.6998 62.6133,142.9738 62.6243,145.4738 C62.6243,145.6368 62.6193,145.8108 62.6133,145.9858 C62.5153,148.1048 60.9363,150.9848 57.8763,154.6388 C54.7223,158.4628 52.0483,160.3798 49.8483,160.3898 C48.4813,160.3898 47.3433,159.2198 46.4323,156.8778 L45.4753,153.6648 L44.5323,150.4568 C43.8353,148.1308 43.0893,146.9708 42.2953,146.9708 C42.1203,146.9708 41.5153,147.3098 40.4813,147.9848 L39.3753,146.6768 L41.0903,145.2558 L42.7743,143.8508 C44.2833,142.6418 45.4313,141.9828 46.2153,141.8908 C46.3243,141.8798 46.4283,141.8738 46.5373,141.8738 C48.1493,141.8738 49.1623,143.0338 49.5543,145.3598 C49.7773,146.6828 49.9623,147.7618 50.1093,148.5898 C50.2513,149.4168 50.3713,149.9938 50.4693,150.3268 C51.0033,152.5208 51.5803,153.6268 52.1943,153.6378 C52.6743,153.6378 53.4033,152.9188 54.3903,151.4868 C55.3593,150.0158 55.8773,148.9268 55.9483,148.2188 C55.9633,148.0708 55.9743,147.9418 55.9743,147.8158 C55.9743,146.8508 55.4463,146.3728 54.3903,146.3728 C53.8563,146.3728 53.2893,146.4868 52.6803,146.7108 C53.7693,143.3388 55.8713,141.6508 58.9803,141.6398 L59.2423,141.6398 Z" id="Fill-40" fill="#FFFFFF"></path>
                </g>
            </g>
        </g>
    </g>
</svg>