<?xml version="1.0" encoding="UTF-8" standalone="no"?>
<svg width="30px" height="28px" viewBox="0 0 30 28" version="1.1" xmlns="http://www.w3.org/2000/svg" xmlns:xlink="http://www.w3.org/1999/xlink">
    <!-- Generator: sketchtool 3.7 (28169) - http://www.bohemiancoding.com/sketch -->
    <title>E1AA9260-89F4-41DA-9F06-72544C074368</title>
    <desc>Created with sketchtool.</desc>
    <defs></defs>
    <g id="Page-1" stroke="none" stroke-width="1" fill="none" fill-rule="evenodd">
        <g id="lifeslicewebbie" transform="translate(-585.000000, -1133.000000)">
            <g id="icon-friends" transform="translate(584.000000, 1131.000000)">
                <g id="Group">
                    <g id="Frame_-_24px">
                        <rect id="Rectangle-path" x="0" y="0" width="32" height="32"></rect>
                    </g>
                    <g id="Line_Icons" transform="translate(1.333333, 2.666667)" fill="#87C0DF">
                        <g id="Group">
                            <path d="M25.8293333,22.7453333 C26.7493333,21.8906667 27.3346667,20.684 27.3346667,19.3333333 C27.3346667,16.76 25.2413333,14.6666667 22.668,14.6666667 C20.0946667,14.6666667 18.0013333,16.76 18.0013333,19.3333333 C18.0013333,20.684 18.5866667,21.8906667 19.5066667,22.7453333 C17.536,23.4573333 16.0013333,24.828 16.0013333,26.6666667 L18.668,26.6666667 C18.668,25.8693333 20.552,24.8573333 22.668,24.8573333 C24.784,24.8573333 26.668,25.8706667 26.668,26.6666667 L29.3346667,26.6666667 C29.3346667,24.8266667 27.8,23.4573333 25.8293333,22.7453333 L25.8293333,22.7453333 Z M22.668,17.3333333 C23.7706667,17.3333333 24.668,18.2306667 24.668,19.3333333 C24.668,20.436 23.7706667,21.3333333 22.668,21.3333333 C21.5653333,21.3333333 20.668,20.436 20.668,19.3333333 C20.668,18.2306667 21.5653333,17.3333333 22.668,17.3333333 L22.668,17.3333333 Z" id="Shape"></path>
                            <path d="M9.82933333,22.7453333 C10.7493333,21.8906667 11.3346667,20.684 11.3346667,19.3333333 C11.3346667,16.76 9.24133333,14.6666667 6.668,14.6666667 C4.09466667,14.6666667 2.00133333,16.76 2.00133333,19.3333333 C2.00133333,20.684 2.58666667,21.8906667 3.50666667,22.7453333 C1.536,23.4573333 0.00133333333,24.8266667 0.00133333333,26.6666667 L2.668,26.6666667 C2.668,25.8693333 4.552,24.8573333 6.668,24.8573333 C8.784,24.8573333 10.668,25.8706667 10.668,26.6666667 L13.3346667,26.6666667 C13.3346667,24.8266667 11.8,23.4573333 9.82933333,22.7453333 L9.82933333,22.7453333 Z M6.668,17.3333333 C7.77066667,17.3333333 8.668,18.2306667 8.668,19.3333333 C8.668,20.436 7.77066667,21.3333333 6.668,21.3333333 C5.56533333,21.3333333 4.668,20.436 4.668,19.3333333 C4.668,18.2306667 5.56533333,17.3333333 6.668,17.3333333 L6.668,17.3333333 Z" id="Shape"></path>
                            <path d="M18.668,12 L21.3346667,12 C21.3346667,10.16 19.8,8.79066667 17.8293333,8.07866667 C18.7493333,7.224 19.3346667,6.01733333 19.3346667,4.66666667 C19.3346667,2.09333333 17.2413333,0 14.668,0 C12.0946667,0 10.0013333,2.09333333 10.0013333,4.66666667 C10.0013333,6.01733333 10.5866667,7.224 11.5066667,8.07866667 C9.536,8.79066667 8.00133333,10.16 8.00133333,12 L10.668,12 C10.668,11.2026667 12.552,10.1906667 14.668,10.1906667 C16.784,10.1906667 18.668,11.2026667 18.668,12 L18.668,12 Z M14.668,2.66666667 C15.7706667,2.66666667 16.668,3.564 16.668,4.66666667 C16.668,5.76933333 15.7706667,6.66666667 14.668,6.66666667 C13.5653333,6.66666667 12.668,5.76933333 12.668,4.66666667 C12.668,3.564 13.5653333,2.66666667 14.668,2.66666667 L14.668,2.66666667 Z" id="Shape"></path>
                        </g>
                    </g>
                </g>
            </g>
        </g>
    </g>
</svg>