<?xml version="1.0" encoding="UTF-8" standalone="no"?>
<svg width="33px" height="30px" viewBox="0 0 33 30" version="1.1" xmlns="http://www.w3.org/2000/svg" xmlns:xlink="http://www.w3.org/1999/xlink">
    <!-- Generator: sketchtool 3.7 (28169) - http://www.bohemiancoding.com/sketch -->
    <title>95590986-8341-4471-92F0-0AB764363C1A</title>
    <desc>Created with sketchtool.</desc>
    <defs></defs>
    <g id="Page-1" stroke="none" stroke-width="1" fill="none" fill-rule="evenodd">
        <g id="lifeslicewebbie" transform="translate(-924.000000, -1133.000000)">
            <g id="icon-chat" transform="translate(923.000000, 1131.000000)">
                <g id="Group">
                    <g id="Frame_-_24px" transform="translate(1.333333, 0.000000)">
                        <rect id="Rectangle-path" x="0" y="0" width="32" height="32"></rect>
                    </g>
                    <g id="Line_Icons" transform="translate(0.000000, 2.666667)" fill="#87C0DF">
                        <g id="Group">
                            <path d="M29.3306667,29.3333333 L22.2186667,24 L17.9973333,24 C16.8946667,24 15.9973333,23.1026667 15.9973333,22 L15.9973333,12.6666667 C15.9973333,11.564 16.8946667,10.6666667 17.9973333,10.6666667 L31.3306667,10.6666667 C32.4333333,10.6666667 33.3306667,11.564 33.3306667,12.6666667 L33.3306667,22 C33.3306667,23.1026667 32.4333333,24 31.3306667,24 L29.3306667,24 L29.3306667,29.3333333 L29.3306667,29.3333333 Z M18.664,21.3333333 L23.1093333,21.3333333 L26.664,24 L26.664,21.3333333 L30.664,21.3333333 L30.664,13.3333333 L18.664,13.3333333 L18.664,21.3333333 L18.664,21.3333333 Z" id="Shape"></path>
                            <path d="M5.33066667,24 L5.33066667,18.6666667 L3.33066667,18.6666667 C2.228,18.6666667 1.33066667,17.7693333 1.33066667,16.6666667 L1.33066667,2 C1.33066667,0.897333333 2.228,0 3.33066667,0 L20.664,0 C21.7666667,0 22.664,0.897333333 22.664,2 L22.664,7.99733333 L19.9973333,7.99733333 L19.9973333,2.66666667 L3.99733333,2.66666667 L3.99733333,16 L7.99733333,16 L7.99733333,18.6666667 L11.552,16 L13.3306667,16 L13.3306667,18.6666667 L12.4426667,18.6666667 L5.33066667,24 L5.33066667,24 Z" id="Shape"></path>
                        </g>
                    </g>
                </g>
            </g>
        </g>
    </g>
</svg>