<?xml version="1.0" encoding="UTF-8" standalone="no"?>
<svg width="28px" height="28px" viewBox="0 0 28 28" version="1.1" xmlns="http://www.w3.org/2000/svg" xmlns:xlink="http://www.w3.org/1999/xlink">
    <!-- Generator: sketchtool 3.7 (28169) - http://www.bohemiancoding.com/sketch -->
    <title>E59DCC7B-CB69-4611-BDBD-65CF28D3CBD6</title>
    <desc>Created with sketchtool.</desc>
    <defs></defs>
    <g id="Page-1" stroke="none" stroke-width="1" fill="none" fill-rule="evenodd">
        <g id="lifeslicewebbie" transform="translate(-246.000000, -952.000000)">
            <g id="icon-stories" transform="translate(244.000000, 950.000000)">
                <g id="Group">
                    <g id="Frame_-_24px">
                        <rect id="Rectangle-path" x="0" y="0" width="32" height="32"></rect>
                    </g>
                    <g id="Line_Icons" transform="translate(2.666667, 2.666667)" fill="#87C0DF">
                        <g id="Group">
                            <path d="M4,0 C1.79466667,0 0,1.79333333 0,4 C0,6.20666667 1.79466667,8 4,8 C6.20533333,8 8,6.20533333 8,4 C8,1.79466667 6.20533333,0 4,0 L4,0 Z M4,5.33333333 C3.26533333,5.33333333 2.66666667,4.73466667 2.66666667,4 C2.66666667,3.26533333 3.26533333,2.66666667 4,2.66666667 C4.736,2.66666667 5.33333333,3.26533333 5.33333333,4 C5.33333333,4.73466667 4.736,5.33333333 4,5.33333333 L4,5.33333333 Z" id="Shape"></path>
                            <path d="M4,9.33333333 C1.79466667,9.33333333 0,11.128 0,13.3333333 C0,15.5386667 1.79466667,17.3333333 4,17.3333333 C6.20533333,17.3333333 8,15.5386667 8,13.3333333 C8,11.128 6.20533333,9.33333333 4,9.33333333 L4,9.33333333 Z M4,14.6666667 C3.26533333,14.6666667 2.66666667,14.068 2.66666667,13.3333333 C2.66666667,12.5986667 3.26533333,12 4,12 C4.736,12 5.33333333,12.5986667 5.33333333,13.3333333 C5.33333333,14.068 4.736,14.6666667 4,14.6666667 L4,14.6666667 Z" id="Shape"></path>
                            <path d="M4,18.6666667 C1.79466667,18.6666667 0,20.4613333 0,22.6666667 C0,24.872 1.79466667,26.6666667 4,26.6666667 C6.20533333,26.6666667 8,24.872 8,22.6666667 C8,20.4613333 6.20533333,18.6666667 4,18.6666667 L4,18.6666667 Z M4,24 C3.26533333,24 2.66666667,23.4013333 2.66666667,22.6666667 C2.66666667,21.932 3.26533333,21.3333333 4,21.3333333 C4.736,21.3333333 5.33333333,21.932 5.33333333,22.6666667 C5.33333333,23.4013333 4.736,24 4,24 L4,24 Z" id="Shape"></path>
                            <rect id="Rectangle-path" x="10.6666667" y="2.66666667" width="16" height="2.66666667"></rect>
                            <rect id="Rectangle-path" x="10.6666667" y="12" width="16" height="2.66666667"></rect>
                            <rect id="Rectangle-path" x="10.6666667" y="21.3333333" width="16" height="2.66666667"></rect>
                        </g>
                    </g>
                </g>
            </g>
        </g>
    </g>
</svg>