<?xml version="1.0" encoding="UTF-8" standalone="no"?>
<svg width="95px" height="22px" viewBox="0 0 95 22" version="1.1" xmlns="http://www.w3.org/2000/svg" xmlns:xlink="http://www.w3.org/1999/xlink">
    <!-- Generator: sketchtool 3.7 (28169) - http://www.bohemiancoding.com/sketch -->
    <title>832EF75F-205B-483F-8C22-5F0D1ACA85CF</title>
    <desc>Created with sketchtool.</desc>
    <defs>
        <polygon id="path-1" points="0 0.25473209 94.4610429 0.25473209 94.4610429 21.175 0 21.175"></polygon>
        <polygon id="path-3" points="0 0.25473209 94.4610429 0.25473209 94.4610429 21.175 0 21.175"></polygon>
    </defs>
    <g id="Page-1" stroke="none" stroke-width="1" fill="none" fill-rule="evenodd">
        <g id="lifeslicewebbie" transform="translate(-50.000000, -3403.000000)">
            <g id="logo-lifeslice(footer)" transform="translate(50.000000, 3403.000000)">
                <g id="Group-3">
                    <mask id="mask-2" fill="white">
                        <use xlink:href="#path-1"></use>
                    </mask>
                    <g id="Clip-2"></g>
                    <path d="M9.76749022,7.9758956 C9.76749022,7.45410567 9.57912754,7.00469 9.20682679,6.63238925 C8.83421,6.26008851 8.38511037,6.07140978 7.86332045,6.07140978 C7.35891299,6.07140978 6.91992679,6.25850828 6.54604582,6.63238925 C6.17216485,7.00627022 5.98506634,7.45726612 5.98506634,7.9758956 L5.98506634,18.9578195 C5.98506634,19.4590665 6.16774022,19.9012131 6.53308799,20.2750941 C6.8981197,20.6489751 7.34153052,20.8357575 7.86332045,20.8357575 C8.38511037,20.8357575 8.83262978,20.6530837 9.20682679,20.2880519 C9.58070776,19.9227042 9.76749022,19.4792934 9.76749022,18.9578195 L9.76749022,7.9758956 Z M5.98506634,2.13285978 C5.98506634,2.65433366 6.17374507,3.0993247 6.54604582,3.46309224 C6.91834657,3.82685978 7.35891299,4.01079784 7.86332045,4.01079784 C8.38511037,4.01079784 8.83262978,3.82812396 9.20682679,3.46309224 C9.58070776,3.09774448 9.76749022,2.65433366 9.76749022,2.13285978 C9.76749022,1.61106985 9.57912754,1.16607881 9.20682679,0.802627313 C8.83421,0.438543731 8.38511037,0.254605672 7.86332045,0.254605672 C7.35891299,0.254605672 6.91834657,0.438543731 6.54604582,0.802627313 C6.17374507,1.16607881 5.98506634,1.61106985 5.98506634,2.13285978 L5.98506634,2.13285978 Z M19.4384604,12.214056 C19.3913697,12.6179613 19.3679824,13.0310318 19.3679824,13.4535837 C19.3679824,13.8527482 19.3913697,14.2436956 19.4384604,14.6261098 L19.4384604,12.214056 Z M19.4384604,1.28585978 L19.4384604,2.3822191 C19.386629,2.57816687 19.3057216,2.75167545 19.1963701,2.90242881 C18.9877805,3.18908142 18.5788186,3.33256575 17.9701163,3.33256575 C17.2223544,3.33256575 16.682866,3.50291388 16.3529152,3.84139784 C16.0232805,4.17988179 15.857357,4.81070716 15.857357,5.73229373 L15.857357,6.07140978 L17.7096954,6.07140978 C18.038382,6.07140978 18.3225063,6.18897843 18.5573275,6.4237997 C18.7921488,6.65862097 18.9094014,6.941165 18.9094014,7.27174784 C18.9094014,7.61939709 18.7921488,7.90636575 18.5573275,8.13233776 C18.3225063,8.35830978 18.0399622,8.47145381 17.7096954,8.47145381 L15.857357,8.47145381 L15.857357,18.9578195 C15.857357,19.4619109 15.6705746,19.9012131 15.2963775,20.2750941 C14.9224966,20.6489751 14.4835104,20.8357575 13.9791029,20.8357575 C13.457629,20.8357575 13.0097936,20.6489751 12.6359126,20.2750941 C12.2617156,19.9012131 12.0749331,19.4606467 12.0749331,18.9578195 L12.0749331,5.73229373 C12.0749331,4.91658216 12.1409865,4.16660791 12.2705649,3.48900791 C12.4004593,2.81172396 12.6321201,2.23209784 12.9620708,1.75455418 C13.2917055,1.27701052 13.7442816,0.906606045 14.318219,0.645869104 C14.8921563,0.385132164 15.6225357,0.254605672 16.5096734,0.254605672 C17.4138775,0.254605672 18.1398324,0.350367239 18.687538,0.541574328 C19.0746928,0.676525448 19.3250003,0.924936642 19.4384604,1.28585978 L19.4384604,1.28585978 Z M3.78223425,2.13285978 C3.78223425,1.61106985 3.59292343,1.16513067 3.22157082,0.802627313 C2.85021821,0.43980791 2.3998544,0.254605672 1.87806448,0.254605672 C1.37397306,0.254605672 0.932142463,0.43980791 0.560789851,0.802627313 C0.189753284,1.16513067 0.00012641791,1.61612657 0.00012641791,2.13285978 L0.00012641791,18.9578195 C0.00012641791,19.4568542 0.182800299,19.9012131 0.547832015,20.2750941 C0.913179776,20.6489751 1.3565906,20.8357575 1.87806448,20.8357575 C2.3998544,20.8357575 2.84768985,20.6530837 3.22157082,20.2880519 C3.59545179,19.9227042 3.78223425,19.4792934 3.78223425,18.9578195 L3.78223425,2.13285978 Z M19.4384604,2.3822191 L19.4384604,1.28585978 C19.485551,1.435665 19.5092544,1.605065 19.5092544,1.79374373 C19.5092544,2.00833813 19.485551,2.20460194 19.4384604,2.3822191 L19.4384604,2.3822191 Z M26.4369559,5.73260978 L26.4369559,8.81056985 C25.8740801,8.81341425 25.3826305,8.90475119 24.9632391,9.08426463 C24.5372107,9.26693851 24.1895615,9.49291052 23.9199753,9.76249672 C23.6503891,10.0320829 23.4459081,10.314943 23.3068484,10.6104449 C23.1677887,10.9059467 23.0982589,11.1669997 23.0982589,11.3929717 C23.0982589,11.740621 23.2287854,11.9147616 23.4895223,11.9147616 L26.4369559,11.9147616 L26.4369559,14.4187844 L23.4895223,14.4187844 C23.2979992,14.4187844 23.1545149,14.4842057 23.0590693,14.6147322 C22.9636238,14.7449426 22.915585,14.9146587 22.915585,15.1232482 C22.915585,15.3839851 22.9939641,15.6842277 23.1504063,16.0233437 C23.3068484,16.3621437 23.5416697,16.6883019 23.854554,17.0011863 C24.1677544,17.3140706 24.5545932,17.5751236 25.0153865,17.7840292 C25.4297212,17.9714437 25.9034723,18.0747904 26.4369559,18.0937531 L26.4369559,21.1732934 C25.3627197,21.1521184 24.397519,20.9438449 23.5416697,20.5491049 C22.6374656,20.1316098 21.8764298,19.5706303 21.2591943,18.8664825 C20.6416428,18.1620187 20.1723163,17.3447269 19.8505828,16.4142911 C19.6517906,15.8400378 19.5146272,15.2436613 19.4384604,14.6261098 L19.4384604,12.214056 C19.5076742,11.6202079 19.6277712,11.0465866 19.7984354,10.4928762 C20.085404,9.56275642 20.5243902,8.74514858 21.11571,8.04100082 C21.7067137,7.33685306 22.4462585,6.77587358 23.3327641,6.35869448 C24.2132649,5.94435978 25.2479954,5.73545418 26.4369559,5.73260978 L26.4369559,5.73260978 Z M74.010544,16.7925967 C74.010544,16.5318598 73.9410141,16.2840807 73.8019544,16.0492594 C73.6625787,15.8144381 73.488754,15.6102732 73.2801645,15.4361325 C73.0712589,15.2623079 72.8408622,15.1229322 72.5889746,15.0186374 C72.3367708,14.9146587 72.0975249,14.8621952 71.8715529,14.8621952 C71.6278824,14.8621952 71.4015943,14.9276165 71.1933208,15.0578269 C70.9847313,15.1880374 70.8463037,15.4105329 70.7758257,15.7231012 C70.7249425,15.9493893 70.6276007,16.1971684 70.488857,16.4664385 C70.3501134,16.7357087 70.1582742,16.9929691 69.9152357,17.2360075 C69.6718813,17.479362 69.3627895,17.683843 68.9889085,17.8491344 C68.6150275,18.0144258 68.1845746,18.0969135 67.6978656,18.0969135 C66.6198369,18.0969135 65.7763134,17.7230325 65.1676111,16.9752706 C64.5589089,16.2275087 64.2545578,15.0534023 64.2545578,13.4535837 C64.2545578,11.853765 64.5589089,10.6796587 65.1676111,9.93221276 C65.7759973,9.18476687 66.6198369,8.81056985 67.6978656,8.81056985 C68.1845746,8.81056985 68.611235,8.89337358 68.9759507,9.05834896 C69.3409824,9.22332433 69.6500742,9.42812134 69.9019619,9.67147582 C70.1538496,9.91451425 70.3501134,10.1717747 70.488857,10.4410449 C70.6276007,10.710315 70.7179895,10.9599904 70.7758257,11.1843822 C70.8570492,11.4988467 71.0062223,11.7191299 71.2062787,11.8493404 C71.406335,11.9798669 71.6278824,12.0449721 71.8715529,12.0449721 C72.1149074,12.0449721 72.3630025,11.9925087 72.6148902,11.8885299 C72.8667779,11.7845512 73.0978066,11.6448594 73.3060801,11.4713508 C73.5143537,11.2975262 73.6843857,11.0930452 73.8149122,10.858224 C73.9451227,10.6237187 74.010544,10.3756236 74.010544,10.1148866 C74.010544,9.92336351 73.8926593,9.58867209 73.6584701,9.11049634 C73.4236488,8.63263664 73.0494518,8.14087097 72.5365111,7.63677955 C72.0238865,7.13268813 71.3668294,6.68864522 70.5672361,6.30623104 C69.7676428,5.92413291 68.8109753,5.73229373 67.6978656,5.73229373 C66.6716682,5.73229373 65.7197413,5.91496761 64.8414529,6.28031537 C63.9631645,6.64534709 63.2021287,7.16745306 62.5589775,7.8453691 C61.9158264,8.52328515 61.4111029,9.33710045 61.0460712,10.2842866 C60.6813555,11.2317889 60.4983656,12.2886426 60.4983656,13.4535837 C60.4983656,14.6188407 60.6810395,15.6756945 61.0460712,16.6231967 C61.4111029,17.570699 61.9155104,18.3838822 62.5589775,19.0621143 C63.2024447,19.7403463 63.9631645,20.2618202 64.8414529,20.627168 C65.7197413,20.9921997 66.6716682,21.1748736 67.6978656,21.1748736 C68.8801891,21.1748736 69.8716216,20.9836665 70.6715309,20.6009363 C71.4714402,20.2185221 72.119332,19.7751113 72.6148902,19.2707038 C73.1104484,18.7666124 73.467263,18.2748467 73.6843857,17.796987 C73.9015085,17.3188113 74.010544,16.9841199 74.010544,16.7925967 L74.010544,16.7925967 Z M58.9737656,7.9758956 C58.9737656,7.45410567 58.7866671,7.00595418 58.4131022,6.63238925 C58.0392212,6.25882433 57.5913857,6.07140978 57.0695958,6.07140978 C56.5651884,6.07140978 56.1262022,6.25850828 55.7523212,6.63238925 C55.3784402,7.00627022 55.1916578,7.45442172 55.1916578,7.9758956 L55.1916578,18.9578195 C55.1916578,19.4615949 55.3743316,19.9012131 55.7393634,20.2750941 C56.1047111,20.6489751 56.5481219,20.8357575 57.0695958,20.8357575 C57.5913857,20.8357575 58.0392212,20.6530837 58.4131022,20.2880519 C58.7869831,19.9227042 58.9737656,19.4792934 58.9737656,18.9578195 L58.9737656,7.9758956 Z M55.1916578,2.13285978 C55.1916578,2.65433366 55.3787563,3.09806052 55.7523212,3.46309224 C56.1262022,3.82812396 56.5651884,4.01079784 57.0695958,4.01079784 C57.5913857,4.01079784 58.0392212,3.82812396 58.4131022,3.46309224 C58.7869831,3.09774448 58.9737656,2.65433366 58.9737656,2.13285978 C58.9737656,1.61106985 58.7866671,1.16734299 58.4131022,0.802627313 C58.0392212,0.437279552 57.5913857,0.254605672 57.0695958,0.254605672 C56.5651884,0.254605672 56.1262022,0.437279552 55.7523212,0.802627313 C55.3787563,1.16734299 55.1916578,1.61106985 55.1916578,2.13285978 L55.1916578,2.13285978 Z M52.9888257,2.13285978 C52.9888257,1.61106985 52.800779,1.1667109 52.4278462,0.802627313 C52.0549134,0.438227687 51.6064458,0.254605672 51.0846559,0.254605672 C50.5802484,0.254605672 50.1399981,0.438227687 49.7670652,0.802627313 C49.3944484,1.1667109 49.2064018,1.61328216 49.2064018,2.13285978 L49.2064018,18.9578195 C49.2064018,19.4600146 49.3890757,19.9012131 49.7541074,20.2750941 C50.1194551,20.6489751 50.562866,20.8357575 51.0846559,20.8357575 C51.6064458,20.8357575 52.0539652,20.6530837 52.4278462,20.2880519 C52.8017272,19.9227042 52.9888257,19.4792934 52.9888257,18.9578195 L52.9888257,2.13285978 Z M47.1603279,15.9057751 C47.1603279,15.0884833 46.9384645,14.4320583 46.4950537,13.936184 C46.0516428,13.4406258 45.4995126,13.0405131 44.838663,12.7364781 C44.1778134,12.4321269 43.4648163,12.1884564 42.6996719,12.0057825 C41.9345275,11.8234247 41.2215305,11.6496001 40.5606809,11.4843087 C39.8998313,11.3190172 39.347701,11.1233855 38.9042902,10.8974135 C38.4608794,10.6711254 38.239016,10.3497079 38.239016,9.93221276 C38.239016,9.4278053 38.465304,9.05834896 38.9172481,8.82352769 C39.3695081,8.58870642 39.9345962,8.47145381 40.6128283,8.47145381 C40.9257126,8.47145381 41.2433376,8.50621873 41.5650712,8.57574858 C41.8868048,8.64527843 42.1908399,8.75399784 42.4778085,8.90190679 C42.7647772,9.04981575 43.0258301,9.23659821 43.2606514,9.46257022 C43.4954727,9.68854224 43.6822551,9.96697769 43.8213149,10.2972445 C43.9082272,10.540915 44.0472869,10.710315 44.238494,10.8060766 C44.4300171,10.9015221 44.6300734,10.9495609 44.838663,10.9495609 C45.0298701,10.9495609 45.2255018,10.9103713 45.4255581,10.8319922 C45.6256145,10.7539292 45.8082884,10.6496344 45.9735798,10.5191079 C46.1385551,10.3888975 46.2735063,10.2277146 46.377801,10.0365075 C46.4820958,9.84530045 46.5342432,9.6367109 46.5342432,9.41042284 C46.5342432,9.04539112 46.3907589,8.64970306 46.1037902,8.2236747 C45.8168216,7.79764634 45.4167089,7.40195828 44.9040843,7.03692657 C44.3908275,6.67157881 43.7691675,6.36280306 43.038788,6.11059933 C42.3084085,5.85871164 41.4996499,5.73229373 40.6128283,5.73229373 C39.7433891,5.73229373 38.952013,5.84543776 38.239016,6.07140978 C37.526019,6.29769784 36.9132081,6.61058216 36.3999514,7.01069485 C35.8870107,7.41049149 35.4913227,7.89751649 35.2132033,8.47145381 C34.9350839,9.04539112 34.7957081,9.67147582 34.7957081,10.3497079 C34.7957081,11.2017646 35.0131469,11.8799967 35.4480246,12.3840881 C35.8829022,12.8884956 36.4217585,13.2971415 37.0652257,13.6103419 C37.7086928,13.9232262 38.4128406,14.1710053 39.177985,14.3536792 C39.9431294,14.5363531 40.6475932,14.7187109 41.2910604,14.9013848 C41.9345275,15.0840587 42.4736999,15.3059221 42.9082615,15.566659 C43.3431391,15.827396 43.5605779,16.1927437 43.5605779,16.6620702 C43.5605779,16.9578881 43.4866234,17.2142004 43.3387145,17.4319553 C43.1911216,17.6490781 42.9995984,17.8317519 42.7647772,17.9793449 C42.5299559,18.1272538 42.2647943,18.2403978 41.9692925,18.3184609 C41.6737906,18.39684 41.3779727,18.4360296 41.0821548,18.4360296 C40.1779507,18.4360296 39.4475712,18.2097415 38.8913324,17.7577975 C38.3347775,17.3055374 37.9087492,16.7145337 37.6129313,15.9841542 C37.5086365,15.7231012 37.3348119,15.5318941 37.0914574,15.4102169 C36.8477869,15.2882236 36.5782007,15.227543 36.2826988,15.227543 C35.8481372,15.227543 35.4435999,15.3492202 35.069719,15.5925747 C34.695838,15.8362452 34.5090555,16.1579788 34.5090555,16.5580915 C34.5090555,17.027418 34.6522238,17.535934 34.9391925,18.0839557 C35.2261611,18.6316613 35.6480809,19.1316441 36.2043197,19.5835881 C36.7608746,20.0358482 37.4479559,20.4141538 38.2652477,20.7185049 C39.0825395,21.022856 40.0215085,21.1748736 41.0821548,21.1748736 C41.9171451,21.1748736 42.7040966,21.0620456 43.4430093,20.8357575 C44.182238,20.6097855 44.8257051,20.2750941 45.3734107,19.8316833 C45.9211163,19.3879564 46.355994,18.8405669 46.6777275,18.1882504 C46.9994611,17.535934 47.1603279,16.7752143 47.1603279,15.9057751 L47.1603279,15.9057751 Z M26.4369559,14.4187844 L26.4369559,11.9147616 L29.4368529,11.9147616 C29.6628249,11.9147616 29.775969,11.7494702 29.775969,11.4192034 C29.775969,11.1932314 29.7108637,10.9321784 29.5803372,10.6363605 C29.4498107,10.3408587 29.2500704,10.0579986 28.9804843,9.78872843 C28.7108981,9.51914224 28.3673574,9.2887456 27.9498622,9.09753851 C27.5326831,8.90633142 27.0371249,8.81056985 26.4631876,8.81056985 L26.4369559,8.81056985 L26.4369559,5.73260978 L26.4631876,5.73229373 C27.6281287,5.73229373 28.632519,5.95447321 29.4760425,6.39788403 C30.3192499,6.84097881 31.0151805,7.39342507 31.5628861,8.05395866 C32.1105917,8.71480828 32.515129,9.4278053 32.775866,10.1929497 C33.0366029,10.9580941 33.1671294,11.6625579 33.1671294,12.3060251 C33.1671294,12.9147273 33.0539854,13.4188187 32.8280134,13.8189314 C32.6020413,14.2187281 32.2714585,14.4187844 31.8368969,14.4187844 L26.4369559,14.4187844 Z M26.4369559,21.1732934 L26.4369559,18.0937531 C26.4970044,18.0959654 26.558001,18.0969135 26.6196298,18.0969135 C26.9846615,18.0969135 27.3067111,18.057724 27.5848305,17.9793449 C27.8629499,17.9012818 28.1240029,17.7840292 28.3673574,17.627271 C28.6110279,17.4708288 28.8502738,17.2663478 29.084779,17.0144601 C29.3196003,16.7622564 29.5863421,16.4635941 29.8802637,16.1143646 C30.1425809,15.8027445 30.4368186,15.6450381 30.7670854,15.6450381 C30.975991,15.6450381 31.1845805,15.6968695 31.3931701,15.8014803 C31.6020757,15.9057751 31.7844335,16.0451508 31.9408757,16.2186594 C32.0973178,16.3928001 32.2281604,16.5884318 32.3324551,16.8055546 C32.4367499,17.0229934 32.4888973,17.2448568 32.4888973,17.4708288 C32.4888973,17.6971169 32.3716447,18.0144258 32.1368234,18.4230717 C31.9020022,18.8317176 31.540763,19.2403635 31.054054,19.6490094 C30.567029,20.0573393 29.9586428,20.4144699 29.2282634,20.7185049 C28.4978839,21.022856 27.6281287,21.1748736 26.6196298,21.1748736 C26.5583171,21.1748736 26.4976365,21.1742415 26.4369559,21.1732934 L26.4369559,21.1732934 Z M82.2909171,5.73260978 L82.2909171,8.81056985 C81.7280413,8.81341425 81.2365917,8.90506724 80.8172003,9.08426463 C80.391488,9.26662246 80.0435227,9.49291052 79.7739365,9.76249672 C79.5043503,10.0320829 79.2998693,10.314943 79.1608096,10.6104449 C79.0217499,10.9059467 78.9522201,11.1669997 78.9522201,11.3929717 C78.9522201,11.740621 79.0830626,11.9147616 79.3434835,11.9147616 L82.2909171,11.9147616 L82.2909171,14.4187844 L79.3434835,14.4187844 C79.1519604,14.4187844 79.00816,14.4845217 78.9130305,14.6147322 C78.817585,14.7446266 78.7695462,14.9146587 78.7695462,15.1232482 C78.7695462,15.3839851 78.8482413,15.6845437 79.0043675,16.0233437 C79.1604936,16.3618277 79.3956309,16.6883019 79.7088313,17.0011863 C80.0217156,17.3140706 80.4085544,17.5751236 80.8693477,17.7840292 C81.2836824,17.9714437 81.7574335,18.0747904 82.2909171,18.0937531 L82.2909171,21.1732934 C81.2166809,21.1521184 80.2514801,20.9435288 79.3956309,20.5491049 C78.4917428,20.1319258 77.730391,19.5706303 77.1131555,18.8664825 C76.495604,18.1620187 76.0262775,17.3447269 75.704544,16.4142911 C75.3828104,15.4841713 75.2219436,14.4971635 75.2219436,13.4535837 C75.2219436,12.4103199 75.365744,11.422996 75.6523966,10.4928762 C75.9390492,9.56307246 76.3786675,8.74514858 76.9696712,8.04100082 C77.5606749,7.3371691 78.3005357,6.77555754 79.1867253,6.35869448 C80.06691,5.94467582 81.1022727,5.73545418 82.2909171,5.73260978 L82.2909171,5.73260978 Z M82.2909171,14.4187844 L82.2909171,11.9147616 L85.2908141,11.9147616 C85.516154,11.9147616 85.6299301,11.7494702 85.6299301,11.4192034 C85.6299301,11.1932314 85.5648249,10.9321784 85.4342984,10.6363605 C85.304088,10.3408587 85.1037156,10.0579986 84.8344454,9.78872843 C84.5651753,9.51977433 84.2210025,9.28842955 83.8038234,9.09753851 C83.3869604,8.90664746 82.8910861,8.81056985 82.3171488,8.81056985 L82.2909171,8.81056985 L82.2909171,5.73260978 L82.3171488,5.73229373 C83.4824059,5.73229373 84.4867962,5.95447321 85.3300037,6.39788403 C86.1732111,6.84066276 86.8691417,7.39342507 87.4168473,8.05395866 C87.9645529,8.71480828 88.3690902,9.4278053 88.6298272,10.1929497 C88.8905641,10.9580941 89.0210906,11.6625579 89.0210906,12.3060251 C89.0210906,12.9147273 88.9079466,13.4188187 88.6819746,13.8189314 C88.4560025,14.2187281 88.1254197,14.4187844 87.6908581,14.4187844 L82.2909171,14.4187844 Z M82.2909171,21.1732934 L82.2909171,18.0937531 C82.3512816,18.0959654 82.4119622,18.0969135 82.473591,18.0969135 C82.8389387,18.0969135 83.1606723,18.057724 83.4387917,17.9793449 C83.7165951,17.9012818 83.9782801,17.7833971 84.2213186,17.627271 C84.4646731,17.4711449 84.704235,17.2660318 84.9387402,17.0144601 C85.1732454,16.7625725 85.4406193,16.4632781 85.7342249,16.1143646 C85.9965421,15.8033766 86.2907798,15.6450381 86.6210466,15.6450381 C86.8299522,15.6450381 87.0385417,15.6968695 87.2474473,15.8014803 C87.4560369,15.9057751 87.6387107,16.0451508 87.7948369,16.2186594 C87.951279,16.392484 88.0824376,16.5887478 88.1864163,16.8055546 C88.2903951,17.0226773 88.3428585,17.2448568 88.3428585,17.4708288 C88.3428585,17.6971169 88.2256059,18.0144258 87.9907846,18.4230717 C87.7559634,18.8317176 87.3947242,19.2406796 86.9080152,19.6490094 C86.4216223,20.0573393 85.812288,20.4144699 85.0822246,20.7185049 C84.3521611,21.02254 83.4824059,21.1748736 82.473591,21.1748736 C82.4122783,21.1748736 82.3515977,21.1742415 82.2909171,21.1732934 L82.2909171,21.1732934 Z" id="Fill-1" fill="#449DCD" mask="url(#mask-2)"></path>
                </g>
                <g id="Group-6">
                    <mask id="mask-4" fill="white">
                        <use xlink:href="#path-3"></use>
                    </mask>
                    <g id="Clip-5"></g>
                    <path d="M91.429257,8.42600657 L92.0205768,8.42600657 L92.0205768,6.36792299 L92.0281618,6.36792299 L92.7063939,8.42600657 L93.1573898,8.42600657 L93.8624857,6.36792299 L93.8700708,6.36792299 L93.8700708,8.42600657 L94.4610745,8.42600657 L94.4610745,5.74278642 L93.5704603,5.74278642 L92.9491163,7.49367448 L92.9415312,7.49367448 L92.3236637,5.74278642 L91.429257,5.74278642 L91.429257,8.42600657 Z M89.7728663,8.42600657 L90.3641861,8.42600657 L90.3641861,6.26584052 L91.1299626,6.26584052 L91.1299626,5.74278642 L89.0074059,5.74278642 L89.0074059,6.26584052 L89.7728663,6.26584052 L89.7728663,8.42600657 Z" id="Fill-4" fill="#449DCD" mask="url(#mask-4)"></path>
                </g>
            </g>
        </g>
    </g>
</svg>