<?xml version="1.0" encoding="UTF-8" standalone="no"?>
<svg width="86px" height="20px" viewBox="0 0 86 20" version="1.1" xmlns="http://www.w3.org/2000/svg" xmlns:xlink="http://www.w3.org/1999/xlink">
    <!-- Generator: sketchtool 3.7 (28169) - http://www.bohemiancoding.com/sketch -->
    <title>048926E6-EEA8-4CFB-8F39-3B9C5308099D</title>
    <desc>Created with sketchtool.</desc>
    <defs>
        <polygon id="path-1" points="0 0.231574627 85.8736754 0.231574627 85.8736754 19.25 0 19.25"></polygon>
        <polygon id="path-3" points="0 0.231574627 85.8736754 0.231574627 85.8736754 19.25 0 19.25"></polygon>
    </defs>
    <g id="Page-1" stroke="none" stroke-width="1" fill="none" fill-rule="evenodd">
        <g id="lifeslicewebbie" transform="translate(-100.000000, -50.000000)">
            <g id="logo-lifeslice(header)" transform="translate(100.000000, 50.000000)">
                <g id="Group-3">
                    <mask id="mask-2" fill="white">
                        <use xlink:href="#path-1"></use>
                    </mask>
                    <g id="Clip-2"></g>
                    <path d="M8.87953657,7.25081418 C8.87953657,6.7764597 8.70829776,6.3679 8.36984254,6.02944478 C8.0311,5.69098955 7.62282761,5.51946343 7.14847313,5.51946343 C6.6899209,5.51946343 6.29084254,5.68955299 5.95095075,6.02944478 C5.61105896,6.36933657 5.4409694,6.77933284 5.4409694,7.25081418 L5.4409694,17.2343813 C5.4409694,17.6900604 5.60703657,18.0920119 5.9391709,18.4319037 C6.27101791,18.7717955 6.67411866,18.9415978 7.14847313,18.9415978 C7.62282761,18.9415978 8.02966343,18.7755306 8.36984254,18.4436836 C8.70973433,18.1115493 8.87953657,17.7084485 8.87953657,17.2343813 L8.87953657,7.25081418 Z M5.4409694,1.93896343 C5.4409694,2.4130306 5.61249552,2.81756791 5.95095075,3.14826567 C6.28940597,3.47896343 6.6899209,3.64617985 7.14847313,3.64617985 C7.62282761,3.64617985 8.02966343,3.48011269 8.36984254,3.14826567 C8.70973433,2.81613134 8.87953657,2.4130306 8.87953657,1.93896343 C8.87953657,1.46460896 8.70829776,1.06007164 8.36984254,0.729661194 C8.0311,0.398676119 7.62282761,0.231459701 7.14847313,0.231459701 C6.6899209,0.231459701 6.28940597,0.398676119 5.95095075,0.729661194 C5.61249552,1.06007164 5.4409694,1.46460896 5.4409694,1.93896343 L5.4409694,1.93896343 Z M17.6713276,11.1036873 C17.6285179,11.4708739 17.6072567,11.8463925 17.6072567,12.2305306 C17.6072567,12.5934075 17.6285179,12.9488142 17.6713276,13.2964634 L17.6713276,11.1036873 Z M17.6713276,1.16896343 L17.6713276,2.16565373 C17.6242082,2.34378806 17.550656,2.50152313 17.4512455,2.63857164 C17.2616187,2.89916493 16.8898351,3.02960522 16.3364694,3.02960522 C15.6566858,3.02960522 15.1662418,3.18446716 14.8662866,3.49217985 C14.5666187,3.79989254 14.4157791,4.37337015 14.4157791,5.21117612 L14.4157791,5.51946343 L16.0997231,5.51946343 C16.3985291,5.51946343 16.6568239,5.62634403 16.8702978,5.83981791 C17.0837716,6.05329179 17.1903649,6.31015 17.1903649,6.61067985 C17.1903649,6.92672463 17.0837716,7.18760522 16.8702978,7.39303433 C16.6568239,7.59846343 16.3999657,7.70132164 16.0997231,7.70132164 L14.4157791,7.70132164 L14.4157791,17.2343813 C14.4157791,17.6926463 14.2459769,18.0920119 13.9057978,18.4319037 C13.565906,18.7717955 13.1668276,18.9415978 12.7082754,18.9415978 C12.2342082,18.9415978 11.8270851,18.7717955 11.4871933,18.4319037 C11.1470142,18.0920119 10.9772119,17.691497 10.9772119,17.2343813 L10.9772119,5.21117612 C10.9772119,4.46962015 11.0372604,3.78782537 11.155059,3.17182537 C11.2731448,2.55611269 11.4837455,2.02917985 11.7837007,1.59504925 C12.0833687,1.16091866 12.4948015,0.824187313 13.0165627,0.587153731 C13.5383239,0.350120149 14.2023052,0.231459701 15.008794,0.231459701 C15.8307978,0.231459701 16.4907567,0.318515672 16.9886709,0.492340299 C17.3406299,0.615023134 17.5681821,0.840851493 17.6713276,1.16896343 L17.6713276,1.16896343 Z M3.43839478,1.93896343 C3.43839478,1.46460896 3.26629403,1.0592097 2.92870075,0.729661194 C2.59110746,0.399825373 2.18168582,0.231459701 1.70733134,0.231459701 C1.24906642,0.231459701 0.847402239,0.399825373 0.509808955,0.729661194 C0.172502985,1.0592097 0.000114925373,1.46920597 0.000114925373,1.93896343 L0.000114925373,17.2343813 C0.000114925373,17.6880493 0.16618209,18.0920119 0.498029104,18.4319037 C0.830163433,18.7717955 1.23326418,18.9415978 1.70733134,18.9415978 C2.18168582,18.9415978 2.58880896,18.7755306 2.92870075,18.4436836 C3.26859254,18.1115493 3.43839478,17.7084485 3.43839478,17.2343813 L3.43839478,1.93896343 Z M17.6713276,2.16565373 L17.6713276,1.16896343 C17.7141373,1.30515 17.7356858,1.45915 17.7356858,1.63067612 C17.7356858,1.82576194 17.7141373,2.00418358 17.6713276,2.16565373 L17.6713276,2.16565373 Z M24.0335963,5.21146343 L24.0335963,8.00960896 C23.521891,8.01219478 23.0751187,8.09522836 22.6938537,8.25842239 C22.3065552,8.42448955 21.9905104,8.62991866 21.7454321,8.87499701 C21.5003537,9.12007537 21.3144619,9.3772209 21.188044,9.64585896 C21.0616261,9.91449701 20.9984172,10.1518179 20.9984172,10.357247 C20.9984172,10.6732918 21.1170776,10.8316015 21.3541112,10.8316015 L24.0335963,10.8316015 L24.0335963,13.1079858 L21.3541112,13.1079858 C21.1799993,13.1079858 21.049559,13.1674597 20.9627903,13.2861201 C20.8760216,13.4044933 20.83235,13.5587806 20.83235,13.7484075 C20.83235,13.985441 20.9036037,14.2583888 21.0458239,14.5666761 C21.188044,14.8746761 21.4015179,15.1711836 21.6859582,15.4556239 C21.9706858,15.7400642 22.3223575,15.9773851 22.7412604,16.1672993 C23.1179284,16.3376761 23.5486112,16.4316276 24.0335963,16.4488664 L24.0335963,19.2484485 C23.0570179,19.2291985 22.1795627,19.039859 21.4015179,18.6810045 C20.5795142,18.3014634 19.8876634,17.7914821 19.3265403,17.1513478 C18.7651299,16.5109261 18.3384694,15.7679336 18.0459843,14.9220828 C17.8652642,14.4000343 17.7405701,13.8578739 17.6713276,13.2964634 L17.6713276,11.1036873 C17.7342493,10.5638254 17.8434284,10.0423515 17.9985776,9.53897836 C18.2594582,8.69341493 18.6585366,7.95013507 19.1961,7.31000075 C19.7333761,6.66986642 20.4056896,6.15988507 21.2116037,5.78063134 C22.012059,5.40396343 22.9527231,5.21404925 24.0335963,5.21146343 L24.0335963,5.21146343 Z M67.2823127,15.265997 C67.2823127,15.0289634 67.2191037,14.8037097 67.0926858,14.5902358 C66.9659806,14.3767619 66.8079582,14.1911575 66.6183313,14.0328478 C66.4284172,13.8748254 66.2189657,13.7481201 65.9899769,13.6533067 C65.7607007,13.5587806 65.5432045,13.5110866 65.3377754,13.5110866 C65.1162567,13.5110866 64.9105403,13.5705604 64.7212007,13.6889336 C64.5315739,13.8073067 64.4057306,14.0095754 64.3416597,14.2937284 C64.2954022,14.4994448 64.2069097,14.7246985 64.0807791,14.9694896 C63.9546485,15.2142806 63.7802493,15.4481537 63.5593052,15.6690978 C63.3380739,15.8903291 63.0570813,16.0762209 62.7171896,16.2264858 C62.3772978,16.3767507 61.9859769,16.4517396 61.5435142,16.4517396 C60.5634881,16.4517396 59.7966485,16.1118478 59.2432828,15.4320642 C58.6899172,14.7522806 58.4132343,13.6849112 58.4132343,12.2305306 C58.4132343,10.77615 58.6899172,9.7087806 59.2432828,9.02928433 C59.7963612,8.34978806 60.5634881,8.00960896 61.5435142,8.00960896 C61.9859769,8.00960896 62.37385,8.08488507 62.7054097,8.23486269 C63.0372567,8.3848403 63.3182493,8.5710194 63.5472381,8.79225075 C63.7762269,9.01319478 63.9546485,9.24706791 64.0807791,9.49185896 C64.2069097,9.73665 64.2890813,9.96362761 64.3416597,10.1676201 C64.4154993,10.453497 64.5511112,10.6537545 64.7329806,10.7721276 C64.91485,10.8907881 65.1162567,10.9499746 65.3377754,10.9499746 C65.5590067,10.9499746 65.7845478,10.9022806 66.0135366,10.8077545 C66.2425254,10.7132284 66.4525515,10.5862358 66.641891,10.4285007 C66.8312306,10.2704784 66.9858052,10.0845866 67.1044657,9.87111269 C67.2228388,9.65792612 67.2823127,9.43238507 67.2823127,9.19535149 C67.2823127,9.02123955 67.1751448,8.71697463 66.9622455,8.2822694 C66.7487716,7.84785149 66.4085925,7.40079179 65.9422828,6.94252687 C65.4762604,6.48426194 64.8789358,6.08058657 64.1520328,5.73293731 C63.4251299,5.38557537 62.5554321,5.21117612 61.5435142,5.21117612 C60.6106075,5.21117612 59.7452194,5.37724328 58.9467754,5.70937761 C58.1483313,6.04122463 57.4564806,6.51586642 56.8717978,7.13215373 C56.2871149,7.74844104 55.8282754,8.48827313 55.4964284,9.34935149 C55.1648687,10.2107172 54.9985142,11.1714933 54.9985142,12.2305306 C54.9985142,13.2898552 55.1645813,14.2506313 55.4964284,15.111997 C55.8282754,15.9733627 56.2868276,16.7126201 56.8717978,17.3291948 C57.4567679,17.9457694 58.1483313,18.4198366 58.9467754,18.7519709 C59.7452194,19.0838179 60.6106075,19.2498851 61.5435142,19.2498851 C62.6183537,19.2498851 63.519656,19.0760604 64.2468463,18.7281239 C64.9740366,18.3804746 65.5630291,17.9773739 66.0135366,17.5188216 C66.464044,17.0605567 66.7884209,16.613497 66.9858052,16.1790791 C67.1831896,15.7443739 67.2823127,15.440109 67.2823127,15.265997 L67.2823127,15.265997 Z M53.6125142,7.25081418 C53.6125142,6.7764597 53.4424246,6.36904925 53.1028201,6.02944478 C52.7629284,5.6898403 52.3558052,5.51946343 51.8814507,5.51946343 C51.4228985,5.51946343 51.0238201,5.68955299 50.6839284,6.02944478 C50.3440366,6.36933657 50.1742343,6.77674701 50.1742343,7.25081418 L50.1742343,17.2343813 C50.1742343,17.692359 50.3403015,18.0920119 50.6721485,18.4319037 C51.0042828,18.7717955 51.4073836,18.9415978 51.8814507,18.9415978 C52.3558052,18.9415978 52.7629284,18.7755306 53.1028201,18.4436836 C53.4427119,18.1115493 53.6125142,17.7084485 53.6125142,17.2343813 L53.6125142,7.25081418 Z M50.1742343,1.93896343 C50.1742343,2.4130306 50.3443239,2.81641866 50.6839284,3.14826567 C51.0238201,3.48011269 51.4228985,3.64617985 51.8814507,3.64617985 C52.3558052,3.64617985 52.7629284,3.48011269 53.1028201,3.14826567 C53.4427119,2.81613134 53.6125142,2.4130306 53.6125142,1.93896343 C53.6125142,1.46460896 53.4424246,1.0612209 53.1028201,0.729661194 C52.7629284,0.397526866 52.3558052,0.231459701 51.8814507,0.231459701 C51.4228985,0.231459701 51.0238201,0.397526866 50.6839284,0.729661194 C50.3443239,1.0612209 50.1742343,1.46460896 50.1742343,1.93896343 L50.1742343,1.93896343 Z M48.1716597,1.93896343 C48.1716597,1.46460896 48.0007082,1.06064627 47.6616784,0.729661194 C47.3226485,0.398388806 46.9149507,0.231459701 46.4405963,0.231459701 C45.982044,0.231459701 45.5818164,0.398388806 45.2427866,0.729661194 C44.904044,1.06064627 44.7330925,1.46662015 44.7330925,1.93896343 L44.7330925,17.2343813 C44.7330925,17.6909224 44.8991597,18.0920119 45.2310067,18.4319037 C45.563141,18.7717955 45.9662418,18.9415978 46.4405963,18.9415978 C46.9149507,18.9415978 47.3217866,18.7755306 47.6616784,18.4436836 C48.0015701,18.1115493 48.1716597,17.7084485 48.1716597,17.2343813 L48.1716597,1.93896343 Z M42.8730254,14.4597955 C42.8730254,13.716803 42.6713313,13.120053 42.2682306,12.6692582 C41.8651299,12.2187507 41.3631933,11.8550119 40.7624209,11.5786164 C40.1616485,11.3019336 39.5134694,11.0804149 38.8178836,10.9143478 C38.1222978,10.7485679 37.4741187,10.5905455 36.8733463,10.4402806 C36.2725739,10.2900157 35.7706373,10.1121687 35.3675366,9.90673955 C34.9644358,9.70102313 34.7627418,9.40882537 34.7627418,9.02928433 C34.7627418,8.57073209 34.9684582,8.23486269 35.3793164,8.02138881 C35.7904619,7.80791493 36.3041784,7.70132164 36.920753,7.70132164 C37.2051933,7.70132164 37.4939433,7.73292612 37.7864284,7.79613507 C38.0789134,7.85934403 38.355309,7.95817985 38.6161896,8.09264254 C38.8770701,8.22710522 39.114391,8.39690746 39.3278649,8.60233657 C39.5413388,8.80776567 39.711141,9.06088881 39.837559,9.36113134 C39.9165701,9.58265 40.0429881,9.73665 40.2168127,9.82370597 C40.3909246,9.91047463 40.572794,9.95414627 40.7624209,9.95414627 C40.9362455,9.95414627 41.1140925,9.9185194 41.2959619,9.84726567 C41.4778313,9.77629925 41.6438985,9.68148582 41.7941634,9.56282537 C41.944141,9.44445224 42.0668239,9.29792239 42.1616373,9.12409776 C42.2564507,8.95027313 42.3038575,8.76064627 42.3038575,8.55492985 C42.3038575,8.22308284 42.1734172,7.86336642 41.9125366,7.47606791 C41.651656,7.0887694 41.2879172,6.72905299 40.8218948,6.39720597 C40.3552978,6.06507164 39.7901522,5.78436642 39.1261709,5.5550903 C38.4621896,5.32610149 37.7269545,5.21117612 36.920753,5.21117612 C36.1303537,5.21117612 35.4109209,5.31403433 34.7627418,5.51946343 C34.1145627,5.72517985 33.5574619,6.00962015 33.0908649,6.37335896 C32.6245552,6.73681045 32.2648388,7.17956045 32.012003,7.70132164 C31.7591672,8.22308284 31.6324619,8.79225075 31.6324619,9.40882537 C31.6324619,10.1834224 31.8301336,10.799997 32.2254769,11.2582619 C32.6208201,11.7168142 33.1106896,12.0883104 33.6956597,12.3730381 C34.2806299,12.6574784 34.9207642,12.8827321 35.61635,13.0487993 C36.3119358,13.2148664 36.9523575,13.3806463 37.5373276,13.5467134 C38.1222978,13.7127806 38.6124545,13.9144746 39.0075104,14.1515082 C39.4028537,14.3885418 39.6005254,14.7206761 39.6005254,15.1473366 C39.6005254,15.4162619 39.533294,15.6492731 39.3988313,15.8472321 C39.264656,16.0446164 39.090544,16.2106836 38.8770701,16.344859 C38.6635963,16.4793216 38.4225403,16.5821799 38.1539022,16.6531463 C37.8852642,16.7244 37.6163388,16.7600269 37.3474134,16.7600269 C36.5254097,16.7600269 35.8614284,16.5543104 35.3557567,16.1434522 C34.8497978,15.7323067 34.4624993,15.1950306 34.1935739,14.5310493 C34.0987604,14.2937284 33.9407381,14.1199037 33.7195067,14.0092881 C33.4979881,13.8983851 33.2529097,13.8432209 32.9842716,13.8432209 C32.5892157,13.8432209 32.2214545,13.9538366 31.8815627,14.1750679 C31.5416709,14.3965866 31.3718687,14.6890716 31.3718687,15.0528104 C31.3718687,15.4794709 31.5020216,15.9417582 31.7629022,16.4399597 C32.0237828,16.9378739 32.4073463,17.3924037 32.9130179,17.8032619 C33.4189769,18.2144075 34.0435963,18.5583216 34.7865888,18.8350045 C35.5295813,19.1116873 36.3831896,19.2498851 37.3474134,19.2498851 C38.1064955,19.2498851 38.821906,19.1473142 39.4936448,18.9415978 C40.1656709,18.7361687 40.750641,18.4319037 41.2485552,18.028803 C41.7464694,17.6254149 42.1418127,17.1277881 42.4342978,16.5347731 C42.7267828,15.9417582 42.8730254,15.2501948 42.8730254,14.4597955 L42.8730254,14.4597955 Z M24.0335963,13.1079858 L24.0335963,10.8316015 L26.7607754,10.8316015 C26.9662045,10.8316015 27.0690627,10.6813366 27.0690627,10.381094 C27.0690627,10.1756649 27.0098761,9.93834403 26.8912157,9.66941866 C26.7725552,9.4007806 26.5909731,9.14363507 26.3458948,8.89884403 C26.1008164,8.65376567 25.7885067,8.44431418 25.4089657,8.27048955 C25.0297119,8.09666493 24.5792045,8.00960896 24.0574433,8.00960896 L24.0335963,8.00960896 L24.0335963,5.21146343 L24.0574433,5.21117612 C25.1164806,5.21117612 26.0295627,5.41315746 26.7964022,5.81625821 C27.5629545,6.21907164 28.1956187,6.72129552 28.6935328,7.3217806 C29.191447,7.92255299 29.5592082,8.57073209 29.7962418,9.26631791 C30.0332754,9.96190373 30.1519358,10.6023254 30.1519358,11.1872955 C30.1519358,11.7406612 30.0490776,12.1989261 29.8436485,12.5626649 C29.6382194,12.9261164 29.3376896,13.1079858 28.9426336,13.1079858 L24.0335963,13.1079858 Z M24.0335963,19.2484485 L24.0335963,16.4488664 C24.0881858,16.4508776 24.1436373,16.4517396 24.1996634,16.4517396 C24.5315104,16.4517396 24.8242828,16.4161127 25.0771187,16.344859 C25.3299545,16.2738925 25.5672754,16.1672993 25.7885067,16.0247918 C26.0100254,15.8825716 26.2275216,15.6966799 26.4407082,15.467691 C26.6541821,15.2384149 26.8966746,14.9669037 27.1638761,14.6494224 C27.4023463,14.3661313 27.6698351,14.2227619 27.9700776,14.2227619 C28.1599918,14.2227619 28.3496187,14.2698813 28.5392455,14.3649821 C28.7291597,14.4597955 28.8949396,14.5865007 29.0371597,14.7442358 C29.1793799,14.9025455 29.2983276,15.0803925 29.393141,15.2777769 C29.4879545,15.4754485 29.5353612,15.6771425 29.5353612,15.8825716 C29.5353612,16.0882881 29.4287679,16.3767507 29.215294,16.748247 C29.0018201,17.1197433 28.6734209,17.4912396 28.2309582,17.8627358 C27.7882082,18.2339448 27.2351299,18.558609 26.5711485,18.8350045 C25.9071672,19.1116873 25.1164806,19.2498851 24.1996634,19.2498851 C24.1439246,19.2498851 24.0887604,19.2493104 24.0335963,19.2484485 L24.0335963,19.2484485 Z M74.8099246,5.21146343 L74.8099246,8.00960896 C74.2982194,8.01219478 73.851447,8.09551567 73.4701821,8.25842239 C73.0831709,8.42420224 72.7668388,8.62991866 72.5217604,8.87499701 C72.2766821,9.12007537 72.0907903,9.3772209 71.9643724,9.64585896 C71.8379545,9.91449701 71.7747455,10.1518179 71.7747455,10.357247 C71.7747455,10.6732918 71.8936933,10.8316015 72.1304396,10.8316015 L74.8099246,10.8316015 L74.8099246,13.1079858 L72.1304396,13.1079858 C71.9563276,13.1079858 71.8256,13.167747 71.7391187,13.2861201 C71.65235,13.404206 71.6086784,13.5587806 71.6086784,13.7484075 C71.6086784,13.985441 71.6802194,14.2586761 71.8221522,14.5666761 C71.9640851,14.8743888 72.1778463,15.1711836 72.4625739,15.4556239 C72.7470142,15.7400642 73.0986858,15.9773851 73.5175888,16.1672993 C73.8942567,16.3376761 74.3249396,16.4316276 74.8099246,16.4488664 L74.8099246,19.2484485 C73.8333463,19.2291985 72.955891,19.0395716 72.1778463,18.6810045 C71.3561299,18.3017507 70.6639918,17.7914821 70.1028687,17.1513478 C69.5414582,16.5109261 69.1147978,15.7679336 68.8223127,14.9220828 C68.5298276,14.0765194 68.3835851,13.1792396 68.3835851,12.2305306 C68.3835851,11.282109 68.5143127,10.3845418 68.774906,9.53897836 C69.0354993,8.69370224 69.4351522,7.95013507 69.9724284,7.31000075 C70.5097045,6.67015373 71.1823052,6.15959776 71.9879321,5.78063134 C72.7881,5.40425075 73.7293388,5.21404925 74.8099246,5.21146343 L74.8099246,5.21146343 Z M74.8099246,13.1079858 L74.8099246,10.8316015 L77.5371037,10.8316015 C77.7419582,10.8316015 77.845391,10.6813366 77.845391,10.381094 C77.845391,10.1756649 77.7862045,9.93834403 77.667544,9.66941866 C77.5491709,9.4007806 77.3670142,9.14363507 77.1222231,8.89884403 C76.8774321,8.6543403 76.5645478,8.44402687 76.185294,8.27048955 C75.8063276,8.09695224 75.3555328,8.00960896 74.8337716,8.00960896 L74.8099246,8.00960896 L74.8099246,5.21146343 L74.8337716,5.21117612 C75.8930963,5.21117612 76.8061784,5.41315746 77.5727306,5.81625821 C78.3392828,6.21878433 78.971947,6.72129552 79.4698612,7.3217806 C79.9677754,7.92255299 80.3355366,8.57073209 80.5725701,9.26631791 C80.8096037,9.96190373 80.9282642,10.6023254 80.9282642,11.1872955 C80.9282642,11.7406612 80.825406,12.1989261 80.6199769,12.5626649 C80.4145478,12.9261164 80.1140179,13.1079858 79.7189619,13.1079858 L74.8099246,13.1079858 Z M74.8099246,19.2484485 L74.8099246,16.4488664 C74.8648015,16.4508776 74.9199657,16.4517396 74.9759918,16.4517396 C75.3081261,16.4517396 75.6006112,16.4161127 75.853447,16.344859 C76.1059955,16.2738925 76.343891,16.1667246 76.5648351,16.0247918 C76.7860664,15.882859 77.00385,15.6963925 77.2170366,15.467691 C77.4302231,15.2387022 77.6732903,14.9666164 77.9402045,14.6494224 C78.1786746,14.366706 78.4461634,14.2227619 78.746406,14.2227619 C78.9363201,14.2227619 79.125947,14.2698813 79.3158612,14.3649821 C79.5054881,14.4597955 79.6715552,14.5865007 79.8134881,14.7442358 C79.9557082,14.9022582 80.0749433,15.0806799 80.1694694,15.2777769 C80.2639955,15.4751612 80.3116896,15.6771425 80.3116896,15.8825716 C80.3116896,16.0882881 80.2050963,16.3767507 79.9916224,16.748247 C79.7781485,17.1197433 79.4497493,17.4915269 79.0072866,17.8627358 C78.5651112,18.2339448 78.0111709,18.558609 77.3474769,18.8350045 C76.6837828,19.1114 75.8930963,19.2498851 74.9759918,19.2498851 C74.920253,19.2498851 74.8650888,19.2493104 74.8099246,19.2484485 L74.8099246,19.2484485 Z" id="Fill-1" fill="#FFFFFF" mask="url(#mask-2)"></path>
                </g>
                <g id="Group-6">
                    <mask id="mask-4" fill="white">
                        <use xlink:href="#path-3"></use>
                    </mask>
                    <g id="Clip-5"></g>
                    <path d="M83.1175063,7.66000597 L83.6550698,7.66000597 L83.6550698,5.7890209 L83.6619653,5.7890209 L84.2785399,7.66000597 L84.6885362,7.66000597 L85.3295325,5.7890209 L85.336428,5.7890209 L85.336428,7.66000597 L85.8737041,7.66000597 L85.8737041,5.22071493 L85.0640549,5.22071493 L84.4991966,6.81243134 L84.4923011,6.81243134 L83.9306034,5.22071493 L83.1175063,5.22071493 L83.1175063,7.66000597 Z M81.6116966,7.66000597 L82.1492601,7.66000597 L82.1492601,5.69621866 L82.8454205,5.69621866 L82.8454205,5.22071493 L80.9158235,5.22071493 L80.9158235,5.69621866 L81.6116966,5.69621866 L81.6116966,7.66000597 Z" id="Fill-4" fill="#FFFFFF" mask="url(#mask-4)"></path>
                </g>
            </g>
        </g>
    </g>
</svg>