<?xml version="1.0" encoding="UTF-8" standalone="no"?>
<svg width="12px" height="20px" viewBox="0 0 12 20" version="1.1" xmlns="http://www.w3.org/2000/svg" xmlns:xlink="http://www.w3.org/1999/xlink">
    <!-- Generator: sketchtool 3.7 (28169) - http://www.bohemiancoding.com/sketch -->
    <title>ECDC0521-9A12-45E1-AE45-884A30FB9446</title>
    <desc>Created with sketchtool.</desc>
    <defs></defs>
    <g id="Page-1" stroke="none" stroke-width="1" fill="none" fill-rule="evenodd">
        <g id="lifeslicewebbie" transform="translate(-1138.000000, -3430.000000)" fill="#3B5998">
            <g id="social-facebook(footer)" transform="translate(1138.000000, 3430.000000)">
                <path d="M8.33333333,3.33333333 L10.8333333,3.33333333 C11.0633333,3.33333333 11.25,3.14666667 11.25,2.91666667 L11.25,0.416666667 C11.25,0.186666667 11.0633333,0 10.8333333,0 L8.33333333,0 C5.80666667,0 3.75,2.05583333 3.75,4.58333333 L3.75,7.5 L0.833333333,7.5 C0.603333333,7.5 0.416666667,7.68666667 0.416666667,7.91666667 L0.416666667,10.4166667 C0.416666667,10.6466667 0.603333333,10.8333333 0.833333333,10.8333333 L3.75,10.8333333 L3.75,19.5833333 C3.75,19.8133333 3.93666667,20 4.16666667,20 L6.66666667,20 C6.89666667,20 7.08333333,19.8133333 7.08333333,19.5833333 L7.08333333,10.8333333 L10,10.8333333 C10.1791667,10.8333333 10.3383333,10.7183333 10.3958333,10.5483333 L11.2291667,8.04833333 C11.2716667,7.92166667 11.25,7.78166667 11.1716667,7.6725 C11.0925,7.56416667 10.9675,7.5 10.8333333,7.5 L7.08333333,7.5 L7.08333333,4.58333333 C7.08333333,3.89416667 7.64416667,3.33333333 8.33333333,3.33333333 L8.33333333,3.33333333 Z" id="Shape"></path>
            </g>
        </g>
    </g>
</svg>