<?xml version="1.0" encoding="UTF-8" standalone="no"?>
<svg width="20px" height="17px" viewBox="0 0 20 17" version="1.1" xmlns="http://www.w3.org/2000/svg" xmlns:xlink="http://www.w3.org/1999/xlink">
    <!-- Generator: sketchtool 3.7 (28169) - http://www.bohemiancoding.com/sketch -->
    <title>05B5F11B-C504-4151-AFC9-DDF0838B80A6</title>
    <desc>Created with sketchtool.</desc>
    <defs></defs>
    <g id="Page-1" stroke="none" stroke-width="1" fill="none" fill-rule="evenodd">
        <g id="lifeslicewebbie" transform="translate(-1043.000000, -52.000000)" fill="#FFFFFF">
            <g id="social-twitter(header)" transform="translate(1043.000000, 52.000000)">
                <g id="Layer_1">
                    <path d="M19.4741667,2.37916667 C19.3475,2.24 19.1433333,2.205 18.9758333,2.29083333 C18.8716667,2.34416667 18.6758333,2.41416667 18.4433333,2.48333333 C18.7366667,2.09333333 18.9725,1.65666667 19.0766667,1.26416667 C19.1216667,1.095 19.0558333,0.916666667 18.9125,0.815833333 C18.7691667,0.715833333 18.5783333,0.715833333 18.435,0.815833333 C18.2091667,0.973333333 17.1191667,1.44666667 16.43,1.6 C14.8725,0.235833333 13.06,0.0941666667 11.1758333,1.19416667 C9.64416667,2.08833333 9.31083333,3.90666667 9.37583333,5.015 C5.87,4.6775 3.69083333,2.82583333 2.46416667,1.29333333 C2.37833333,1.18583333 2.24,1.12916667 2.11,1.1375 C1.97333333,1.1475 1.85,1.22333333 1.78,1.34083333 C1.2,2.32 1.03916667,3.4025 1.31666667,4.47166667 C1.46833333,5.055 1.73333333,5.56916667 2.04083333,5.98583333 C1.89333333,5.91333333 1.75083333,5.8225 1.61666667,5.71416667 C1.49333333,5.6125 1.32083333,5.59333333 1.175,5.66083333 C1.03,5.73 0.9375,5.87666667 0.9375,6.0375 C0.9375,7.87333333 2.08583333,9.09833333 3.15833333,9.73833333 C2.985,9.7175 2.80416667,9.67916667 2.62166667,9.62333333 C2.465,9.57583333 2.295,9.62333333 2.18666667,9.74666667 C2.07833333,9.86916667 2.0525,10.0441667 2.12,10.1933333 C2.7225,11.5258333 3.86416667,12.4425 5.27666667,12.775 C4.04333333,13.4991667 2.3925,13.8541667 0.880833333,13.68 C0.685,13.6525 0.498333333,13.7766667 0.436666667,13.965 C0.375,14.1533333 0.455833333,14.36 0.628333333,14.4566667 C2.92166667,15.7441667 4.995,16.2041667 6.78666667,16.2041667 C9.39416667,16.2041667 11.4066667,15.2308333 12.6316667,14.4166667 C15.9341667,12.225 17.9925,8.29 17.7058333,4.76916667 C18.235,4.37833333 19.0266667,3.65666667 19.5175,2.88083333 C19.6191667,2.72416667 19.6008333,2.5175 19.4741667,2.37916667 L19.4741667,2.37916667 Z" id="Shape"></path>
                </g>
            </g>
        </g>
    </g>
</svg>